<?xml version="1.0" encoding="UTF-8"?>
<svg width="2851px" height="2039px" viewBox="0 0 2851 2039" version="1.1" xmlns="http://www.w3.org/2000/svg" xmlns:xlink="http://www.w3.org/1999/xlink">
    <!-- Generator: Sketch 50.2 (55047) - http://www.bohemiancoding.com/sketch -->
    <title>Slice 60</title>
    <desc>Created with Sketch.</desc>
    <defs>
        <path d="M62,649 L2188,649 L2188,999 L62,999 L62,649 Z" id="path-1"></path>
        <mask id="mask-2" maskContentUnits="userSpaceOnUse" maskUnits="objectBoundingBox" x="0" y="0" width="2126" height="350" fill="white">
            <use xlink:href="#path-1"></use>
        </mask>
        <path d="M49,47 L2316,47 L2316,1342 L49,1342 L49,47 Z" id="path-3"></path>
        <mask id="mask-4" maskContentUnits="userSpaceOnUse" maskUnits="objectBoundingBox" x="0" y="0" width="2267" height="1295" fill="white">
            <use xlink:href="#path-3"></use>
        </mask>
    </defs>
    <g id="Page-1" stroke="none" stroke-width="1" fill="none" fill-rule="evenodd">
        <use id="Rectangle-8-Copy-8" stroke-opacity="0.299988678" stroke="#979797" mask="url(#mask-2)" stroke-width="12" fill-opacity="0.0781533062" fill="#D8D8D8" stroke-dasharray="10,10" xlink:href="#path-1"></use>
        <use id="Rectangle-6-Copy-4" stroke="#979797" mask="url(#mask-4)" stroke-width="2" stroke-dasharray="5" xlink:href="#path-3"></use>
        <rect id="Rectangle-1-Copy-289" stroke="#9013FE" fill-opacity="0.0784646739" fill="#9013FE" transform="translate(1468.000000, 292.500000) rotate(90.000000) translate(-1468.000000, -292.500000) " x="1409" y="232" width="118" height="121"></rect>
        <text id="UI-Component-Copy-7" font-family="Menlo-Regular, Menlo" font-size="20" font-weight="normal" fill="#9013FE">
            <tspan x="1457.95898" y="288">UI </tspan>
            <tspan x="1415.81543" y="312">Component</tspan>
        </text>
        <path d="M1448,207.380597 L1448,257.619403" id="Line-Copy-35" stroke="#9013FE" fill="#9013FE" stroke-linecap="square"></path>
        <path id="Line-Copy-35-decoration-1" d="M1448,257.619403 L1451,246.819403 L1445,246.819403 L1448,257.619403 Z" stroke="#9013FE" fill="#9013FE" stroke-linecap="square"></path>
        <path d="M1489,209.380597 L1489,259.619403" id="Line-Copy-36" stroke="#9013FE" fill="#9013FE" stroke-linecap="square" transform="translate(1489.000000, 234.500000) scale(1, -1) translate(-1489.000000, -234.500000) "></path>
        <path id="Line-Copy-36-decoration-1" d="M1489,259.619403 L1492,248.819403 L1486,248.819403 L1489,259.619403 Z" stroke="#9013FE" fill="#9013FE" stroke-linecap="square"></path>
        <g id="Group-71-Copy-6" transform="translate(472.000000, 605.000000)" stroke="#D0021B" stroke-linecap="square" stroke-width="2">
            <path d="M1.5,3.91101695 L1.5,217.088983" id="Line-2-Copy-4"></path>
            <path id="Line-2-Copy-4-decoration-1" d="M1.5,217.088983 L4.5,206.288983 L-1.5,206.288983 L1.5,217.088983 Z"></path>
            <path d="M87.5,0.911016949 L87.5,214.088983" id="Line-2-Copy-5" transform="translate(87.500000, 107.500000) scale(1, -1) translate(-87.500000, -107.500000) "></path>
            <path id="Line-2-Copy-5-decoration-1" d="M87.5,214.088983 L90.5,203.288983 L84.5,203.288983 L87.5,214.088983 Z"></path>
        </g>
        <g id="object-service-copy-4" transform="translate(195.000000, 1072.000000)" fill="#4A90E2">
            <g id="Group-4" transform="translate(0.177340, 0.000000)">
                <path d="M240.85468,0.5 L0.5,0.5 L0.5,114.5 L240.85468,114.5 L240.85468,0.5 Z" id="Rectangle-1-Copy-120" stroke="#4A90E2" fill-opacity="0.0484601449"></path>
                <text id="Service-A" font-family="Menlo-Regular, Menlo" font-size="20" font-weight="normal">
                    <tspan x="67.6627203" y="64">Service A</tspan>
                </text>
            </g>
        </g>
        <polyline id="Path-43-Copy-3" stroke="#417505" stroke-width="2" points="853 1273.14679 1074 1273.14679 1074 964"></polyline>
        <rect id="Rectangle-1-Copy-287" stroke="#9013FE" fill-opacity="0.0138700181" fill="#9013FE" transform="translate(1640.500000, 263.000000) rotate(90.000000) translate(-1640.500000, -263.000000) " x="1466" y="-47" width="349" height="620"></rect>
        <text id="Stateful-View-Compon" font-family="Menlo-Bold, Menlo" font-size="20" font-weight="bold" fill="#9013FE">
            <tspan x="1484.4873" y="159">Stateful View Component B</tspan>
        </text>
        <rect id="Rectangle-1-Copy-290" stroke="#9013FE" fill-opacity="0.0784646739" fill="#9013FE" transform="translate(1641.000000, 291.500000) rotate(90.000000) translate(-1641.000000, -291.500000) " x="1582" y="231" width="118" height="121"></rect>
        <text id="UI-Component-Copy-8" font-family="Menlo-Regular, Menlo" font-size="20" font-weight="normal" fill="#9013FE">
            <tspan x="1630.95898" y="287">UI </tspan>
            <tspan x="1588.81543" y="311">Component</tspan>
        </text>
        <path d="M1621,206.380597 L1621,256.619403" id="Line-Copy-37" stroke="#9013FE" fill="#9013FE" stroke-linecap="square"></path>
        <path id="Line-Copy-37-decoration-1" d="M1621,256.619403 L1624,245.819403 L1618,245.819403 L1621,256.619403 Z" stroke="#9013FE" fill="#9013FE" stroke-linecap="square"></path>
        <path d="M1662,208.380597 L1662,258.619403" id="Line-Copy-40" stroke="#9013FE" fill="#9013FE" stroke-linecap="square" transform="translate(1662.000000, 233.500000) scale(1, -1) translate(-1662.000000, -233.500000) "></path>
        <path id="Line-Copy-40-decoration-1" d="M1662,258.619403 L1665,247.819403 L1659,247.819403 L1662,258.619403 Z" stroke="#9013FE" fill="#9013FE" stroke-linecap="square"></path>
        <rect id="Rectangle-1-Copy-291" stroke="#9013FE" fill-opacity="0.0784646739" fill="#9013FE" transform="translate(1816.000000, 292.500000) rotate(90.000000) translate(-1816.000000, -292.500000) " x="1757" y="232" width="118" height="121"></rect>
        <text id="UI-Component" font-family="Menlo-Regular, Menlo" font-size="20" font-weight="normal" fill="#9013FE">
            <tspan x="1805.95898" y="288">UI </tspan>
            <tspan x="1763.81543" y="312">Component</tspan>
        </text>
        <path d="M1796,207.380597 L1796,257.619403" id="Line-Copy-41" stroke="#9013FE" fill="#9013FE" stroke-linecap="square"></path>
        <path id="Line-Copy-41-decoration-1" d="M1796,257.619403 L1799,246.819403 L1793,246.819403 L1796,257.619403 Z" stroke="#9013FE" fill="#9013FE" stroke-linecap="square"></path>
        <path d="M1837,209.380597 L1837,259.619403" id="Line-Copy-42" stroke="#9013FE" fill="#9013FE" stroke-linecap="square" transform="translate(1837.000000, 234.500000) scale(1, -1) translate(-1837.000000, -234.500000) "></path>
        <path id="Line-Copy-42-decoration-1" d="M1837,259.619403 L1840,248.819403 L1834,248.819403 L1837,259.619403 Z" stroke="#9013FE" fill="#9013FE" stroke-linecap="square"></path>
        <path d="M276.5,900.5 L276.5,1068.5119" id="Line-2-Copy-33" stroke="#D0021B" stroke-width="2" stroke-linecap="square"></path>
        <path id="Line-2-Copy-33-decoration-1" d="M276.5,1068.5119 L279.5,1057.7119 L273.5,1057.7119 L276.5,1068.5119 Z" stroke="#D0021B" stroke-width="2" stroke-linecap="square"></path>
        <path d="M362.5,899.497024 L362.5,1067.5" id="Line-2-Copy-36" stroke="#D0021B" stroke-width="2" stroke-linecap="square" transform="translate(362.500000, 983.500000) scale(1, -1) translate(-362.500000, -983.500000) "></path>
        <path id="Line-2-Copy-36-decoration-1" d="M362.5,1067.5 L365.5,1056.7 L359.5,1056.7 L362.5,1067.5 Z" stroke="#D0021B" stroke-width="2" stroke-linecap="square"></path>
        <g id="Group-71-Copy-12" transform="translate(594.000000, 900.000000)" stroke="#D0021B" stroke-linecap="square" stroke-width="2">
            <path d="M1.5,1.72457627 L1.5,171.275424" id="Line-2-Copy-4"></path>
            <path id="Line-2-Copy-4-decoration-1" d="M1.5,171.275424 L4.5,160.475424 L-1.5,160.475424 L1.5,171.275424 Z"></path>
            <path d="M87.5,0.724576271 L87.5,170.275424" id="Line-2-Copy-5" transform="translate(87.500000, 85.500000) scale(1, -1) translate(-87.500000, -85.500000) "></path>
            <path id="Line-2-Copy-5-decoration-1" d="M87.5,170.275424 L90.5,159.475424 L84.5,159.475424 L87.5,170.275424 Z"></path>
        </g>
        <g id="Group-5-Copy-3" transform="translate(192.000000, 1241.000000)" fill="#4A90E2">
            <path d="M660.5,0.5 L0.5,0.5 L0.5,58.5 L660.5,58.5 L660.5,0.5 Z" id="Rectangle-1-Copy-125" stroke="#4A90E2" fill-opacity="0.0484601449"></path>
            <text id="Preload-/-Bootstrap" font-family="Menlo-Regular, Menlo" font-size="20" font-weight="normal">
                <tspan x="166.446289" y="38.0615385">Preload / Bootstrap Service</tspan>
            </text>
        </g>
        <polyline id="Path-6-Copy-2" stroke="#417505" stroke-width="2" points="1074 821 1074 965.115226 731 965.115226 731 1068"></polyline>
        <path id="Path-6-Copy-2-decoration-1" d="M1074,821 L1077,831.8 L1071,831.8 L1074,821 Z" stroke="#417505" stroke-width="2"></path>
        <path id="Path-6-Copy-2-decoration-2" d="M731,1068 L734,1057.2 L728,1057.2 L731,1068 Z" stroke="#417505" stroke-width="2"></path>
        <rect id="Rectangle-1-Copy-292" stroke="#D0021B" fill-opacity="0.0234375" fill="#D0021B" transform="translate(1065.500000, 860.000000) rotate(90.000000) translate(-1065.500000, -860.000000) " x="1027" y="-27" width="77" height="1774"></rect>
        <rect id="Rectangle-1-Copy-293" stroke="#417505" fill-opacity="0.0358072917" fill="#7ED321" transform="translate(1081.000000, 751.000000) rotate(90.000000) translate(-1081.000000, -751.000000) " x="1012.5" y="584.5" width="137" height="333"></rect>
        <rect id="Rectangle-1-Copy-294" stroke="#7ED321" fill-opacity="0.191717618" fill="#7ED321" transform="translate(968.000000, 758.500000) rotate(90.000000) translate(-968.000000, -758.500000) " x="930" y="731" width="76" height="55"></rect>
        <rect id="Rectangle-1-Copy-295" stroke="#7ED321" fill-opacity="0.191717618" fill="#7ED321" transform="translate(1041.000000, 758.500000) rotate(90.000000) translate(-1041.000000, -758.500000) " x="1003" y="731" width="76" height="55"></rect>
        <rect id="Rectangle-1-Copy-296" stroke="#7ED321" fill-opacity="0.191717618" fill="#7ED321" transform="translate(1115.000000, 759.500000) rotate(90.000000) translate(-1115.000000, -759.500000) " x="1077" y="732" width="76" height="55"></rect>
        <rect id="Rectangle-1-Copy-297" stroke="#7ED321" fill-opacity="0.191717618" fill="#7ED321" transform="translate(1198.000000, 759.500000) rotate(90.000000) translate(-1198.000000, -759.500000) " x="1160" y="732" width="76" height="55"></rect>
        <text id="Event-Bus-Copy-19" font-family="Menlo-Regular, Menlo" font-size="20" font-weight="normal" fill="#D0021B">
            <tspan x="193" y="863">Event Bus</tspan>
        </text>
        <text id="Store" font-family="Menlo-Regular, Menlo" font-size="20" font-weight="normal" fill="#417505">
            <tspan x="1039.87695" y="708"> Store</tspan>
        </text>
        <g id="Group-7-Copy-52" transform="translate(1951.000000, 810.000000)">
            <path d="M147.5,0.5 L0.5,0.5 L0.5,99.5 L147.5,99.5 L147.5,0.5 Z" id="Rectangle-1-Copy-128" stroke="#9B9B9B" fill-opacity="0.0484601449" fill="#C7C7C7"></path>
            <text id="Broker-Connector" font-family="Menlo-Regular, Menlo" font-size="20" font-weight="normal" fill="#4A4A4A">
                <tspan x="38.7215601" y="45">Broker </tspan>
                <tspan x="20.6600366" y="69">Connector</tspan>
            </text>
        </g>
        <path d="" id="Path-10-Copy-3" stroke="#979797"></path>
        <polyline id="Path-12-Copy-3" stroke="#D0021B" stroke-width="2" points="193.084335 1270.51165 124 1270.51165 124 862 176.150224 862"></polyline>
        <path id="Path-12-Copy-3-decoration-1" d="M176.150224,862 L165.350224,859 L165.350224,865 L176.150224,862 Z" stroke="#D0021B" stroke-width="2"></path>
        <path d="" id="Path-139-Copy-3" stroke="#979797"></path>
        <polyline id="Path-140-Copy-6" stroke="#417505" stroke-width="2" transform="translate(1335.543238, 671.823490) scale(-1, 1) translate(-1335.543238, -671.823490) " points="1250 606 1250 737.646979 1421.08648 737.646979"></polyline>
        <path id="Path-140-Copy-6-decoration-1" d="M1247,616.8 L1250,606 L1253,616.8" stroke="#417505" stroke-width="2"></path>
        <path id="Path-140-Copy-6-decoration-2" d="M1410.28648,740.646979 L1421.08648,737.646979 L1410.28648,734.646979" stroke="#417505" stroke-width="2"></path>
        <path d="M1298.5,897.5 L1298.5,1072.5" id="Line-2-Copy-40" stroke="#D0021B" stroke-width="2" stroke-linecap="square"></path>
        <path id="Line-2-Copy-40-decoration-1" d="M1298.5,1072.5 L1301.5,1061.7 L1295.5,1061.7 L1298.5,1072.5 Z" stroke="#D0021B" stroke-width="2" stroke-linecap="square"></path>
        <path d="M1384.5,896.454292 L1384.5,1071.5" id="Line-2-Copy-41" stroke="#D0021B" stroke-width="2" stroke-linecap="square" transform="translate(1384.500000, 984.000000) scale(1, -1) translate(-1384.500000, -984.000000) "></path>
        <path id="Line-2-Copy-41-decoration-1" d="M1384.5,1071.5 L1387.5,1060.7 L1381.5,1060.7 L1384.5,1071.5 Z" stroke="#D0021B" stroke-width="2" stroke-linecap="square"></path>
        <g id="Group-7-Copy-53" transform="translate(1089.000000, 1584.000000)" fill="#F5A623" fill-opacity="0.049535779" stroke="#DD8A02">
            <path d="M1022.5,0.5 L0.5,0.5 L0.5,366.5 L1022.5,366.5 L1022.5,0.5 Z" id="Rectangle-1-Copy-128"></path>
        </g>
        <g id="Group-7-Copy-53" transform="translate(1114.000000, 1602.000000)" fill="#F5A623" fill-opacity="0.049535779" stroke="#DD8A02">
            <path d="M898.5,0.5 L0.5,0.5 L0.5,75.5 L898.5,75.5 L898.5,0.5 Z" id="Rectangle-1-Copy-128"></path>
        </g>
        <g id="Group-6-Copy-6" transform="translate(1173.000000, 1072.000000)" fill="#4A90E2">
            <path d="M359.5,0.5 L0.5,0.5 L0.5,184.5 L359.5,184.5 L359.5,0.5 Z" id="Rectangle-1-Copy-126" stroke="#4A90E2" fill-opacity="0.0484601449"></path>
            <text id="Adaptable-API-Layer" font-family="Menlo-Regular, Menlo" font-size="20" font-weight="normal">
                <tspan x="63.6103516" y="39">Adaptable API Layer</tspan>
            </text>
        </g>
        <path d="" id="Path-136-Copy-3" stroke="#979797"></path>
        <text id="REST-over-XHR" font-family="Menlo-Regular, Menlo" font-size="18" font-weight="normal" fill="#9B9B9B">
            <tspan x="1401.56006" y="1420">REST over XHR</tspan>
        </text>
        <polyline id="Line-2-Copy-42" stroke="#D0021B" stroke-width="6" stroke-linecap="square" points="1978 911 1978 1222.78526 1745.79655 1223.87722 1745.28654 1598.50095"></polyline>
        <path d="M2050.5,914.5 L2050.5,1711" id="Line-67" stroke="#D0021B" stroke-width="6" stroke-linecap="square"></path>
        <text id="WebSocket-+-STOMP-Copy" font-family="Menlo-Regular, Menlo" font-size="18" font-weight="normal" fill="#F44336">
            <tspan x="1815.38623" y="1417">WebSocket + STOMP</tspan>
        </text>
        <g id="if_weather_29_2682822-copy" transform="translate(2105.000000, 663.000000)" fill-rule="nonzero">
            <path d="M65,0 C29.1177208,0.0391514579 0.0391514579,29.1177208 0,65 L12.3748634,65 C12.4373781,35.9932602 35.9364296,12.4942087 64.9431694,12.431694" id="Shape" fill="#F7563C"></path>
            <path d="M65,12 C35.7550551,12.0630281 12.0630281,35.7550551 12,65 L24.4764865,65 C24.5237613,42.6390926 42.6390926,24.5237613 65,24.4764865" id="Shape" fill="#EFCC00"></path>
            <path d="M65,25 C42.9150645,25.0155747 25.0155747,42.9150645 25,65 L37.2979174,65 C37.3134943,49.7093045 49.7092985,37.3198182 65,37.3120367" id="Shape" fill="#42BC59"></path>
            <path d="M65,37 C49.5425518,37.0157408 37.0157408,49.5425518 37,65 L49.4650688,65 C49.4729408,56.4235572 56.4235572,49.4729408 65,49.4650688" id="Shape" fill="#0D98FF"></path>
        </g>
        <path d="M2081.90011,830.542416 L2081.90011,851.197758 L2091.05949,851.197758 C2095.45228,851.197758 2098.52874,850.450061 2100.28897,848.954644 C2102.0492,847.459227 2102.9293,844.857864 2102.9293,841.150476 C2102.9293,837.38078 2102.01026,834.670377 2100.17214,833.019188 C2098.33402,831.367998 2095.2965,830.542416 2091.05949,830.542416 L2081.90011,830.542416 Z M2081.90011,803.344658 L2081.90011,819.560503 L2091.05949,819.560503 C2094.5488,819.560503 2097.03333,818.937422 2098.51317,817.691242 C2099.99301,816.445061 2100.73292,814.388894 2100.73292,811.522678 C2100.73292,808.656462 2099.97743,806.576929 2098.46644,805.284017 C2096.95544,803.991104 2094.48649,803.344658 2091.05949,803.344658 L2081.90011,803.344658 Z M2068.58162,792.362745 L2091.05949,792.362745 C2098.81696,792.362745 2104.65056,793.834774 2108.56045,796.778876 C2112.47034,799.722978 2114.42526,804.123488 2114.42526,809.980537 C2114.42526,814.466788 2113.27256,817.971618 2110.96713,820.495134 C2108.66169,823.01865 2105.28148,824.482891 2100.82638,824.887899 C2106.1538,825.417526 2110.16489,827.208884 2112.85975,830.262027 C2115.55462,833.31517 2116.90203,837.583274 2116.90203,843.06647 C2116.90203,849.795845 2114.87702,854.671454 2110.82693,857.693443 C2106.77684,860.715431 2100.18776,862.226402 2091.05949,862.226402 L2068.58162,862.226402 L2068.58162,792.362745 Z M2124.26511,809.887074 L2151.3694,809.887074 L2151.3694,851.711805 L2168.37968,851.711805 L2168.37968,862.226402 L2120.62005,862.226402 L2120.62005,851.711805 L2137.67706,851.711805 L2137.67706,820.401671 L2124.26511,820.401671 L2124.26511,809.887074 Z M2136.37493,784.418383 L2150.06728,784.418383 L2150.06728,800.400571 L2136.37493,800.400571 L2136.37493,784.418383 Z M2192.50762,805.307383 L2192.50762,809.887074 L2208.58327,809.887074 L2208.58327,820.401671 L2192.50762,820.401671 L2192.50762,862.226402 L2178.81527,862.226402 L2178.81527,820.401671 L2166.1043,820.401671 L2166.1043,809.887074 L2178.81527,809.887074 L2178.81527,806.242014 C2178.81527,799.948801 2180.12374,795.587234 2182.74072,793.157182 C2185.3577,790.727129 2190.21774,789.512121 2197.32097,789.512121 L2208.58327,789.512121 L2208.58327,800.026718 L2197.88174,800.026718 C2195.82555,800.026718 2194.4314,800.400567 2193.69927,801.148275 C2192.96714,801.895984 2192.56993,803.282339 2192.50762,805.307383 Z M2255.47105,824.327121 C2253.97564,822.956322 2252.22322,821.928238 2250.21375,821.242839 C2248.20429,820.55744 2246.00014,820.214745 2243.60124,820.214745 C2240.70387,820.214745 2238.1726,820.720998 2236.00737,821.73352 C2233.84213,822.746042 2232.1676,824.218071 2230.98372,826.149651 C2230.23602,827.333523 2229.71419,828.766609 2229.41822,830.448953 C2229.12225,832.131297 2228.97427,834.685929 2228.97427,838.112926 L2228.97427,862.226402 L2215.28193,862.226402 L2215.28193,809.887074 L2228.97427,809.887074 L2228.97427,818.018362 C2230.31391,815.027529 2232.37008,812.714341 2235.14283,811.078728 C2237.91558,809.443116 2241.15561,808.625322 2244.86299,808.625322 C2246.73226,808.625322 2248.56256,808.851189 2250.35395,809.30293 C2252.14533,809.75467 2253.85102,810.416694 2255.47105,811.28902 L2255.47105,824.327121 Z M2285.73099,789.231732 L2296.75964,789.231732 L2296.75964,800.727692 L2285.73099,800.727692 L2285.73099,789.231732 Z M2267.27203,789.231732 L2278.30068,789.231732 L2278.30068,800.727692 L2267.27203,800.727692 L2267.27203,789.231732 Z M2281.99247,819.74743 C2278.72125,819.74743 2276.15104,821.188304 2274.28176,824.070097 C2272.41249,826.95189 2271.47787,830.962974 2271.47787,836.10347 C2271.47787,841.243965 2272.41249,845.255049 2274.28176,848.136842 C2276.15104,851.018635 2278.72125,852.45951 2281.99247,852.45951 C2285.29485,852.45951 2287.88063,851.018635 2289.74991,848.136842 C2291.61918,845.255049 2292.5538,841.243965 2292.5538,836.10347 C2292.5538,830.962974 2291.61918,826.95189 2289.74991,824.070097 C2287.88063,821.188304 2285.29485,819.74743 2281.99247,819.74743 Z M2257.78553,836.10347 C2257.78553,827.660595 2259.9741,820.970263 2264.35131,816.032272 C2268.72852,811.094281 2274.60885,808.625322 2281.99247,808.625322 C2289.40724,808.625322 2295.30315,811.094281 2299.68036,816.032272 C2304.05757,820.970263 2306.24614,827.660595 2306.24614,836.10347 C2306.24614,844.546344 2304.05757,851.236676 2299.68036,856.174667 C2295.30315,861.112659 2289.40724,863.581617 2281.99247,863.581617 C2274.60885,863.581617 2268.72852,861.112659 2264.35131,856.174667 C2259.9741,851.236676 2257.78553,844.546344 2257.78553,836.10347 Z M2347.13321,811.522678 L2347.13321,823.485953 C2344.6097,821.865918 2341.98497,820.643122 2339.25895,819.817527 C2336.53293,818.991932 2333.79916,818.579141 2331.05756,818.579141 C2328.00442,818.579141 2325.69902,819.023086 2324.1413,819.91099 C2322.58357,820.798894 2321.80472,822.115152 2321.80472,823.859805 C2321.80472,826.352167 2325.1382,828.37718 2331.80527,829.934906 L2332.31932,830.075101 L2336.24476,831.009731 C2341.22949,832.193603 2344.8823,834.101789 2347.20331,836.734346 C2349.52432,839.366902 2350.68481,842.926253 2350.68481,847.412503 C2350.68481,852.802235 2348.91682,856.844473 2345.38078,859.539339 C2341.84474,862.234204 2336.52519,863.581617 2329.42196,863.581617 C2326.27535,863.581617 2323.05091,863.309019 2319.74853,862.763815 C2316.44615,862.218611 2313.09709,861.400817 2309.70125,860.310409 L2309.70125,848.347134 C2312.72324,850.060632 2315.7997,851.369103 2318.93073,852.272584 C2322.06176,853.176065 2325.09149,853.627798 2328.02001,853.627798 C2331.22893,853.627798 2333.65894,853.160488 2335.31013,852.225852 C2336.96132,851.291217 2337.78691,849.936015 2337.78691,848.160208 C2337.78691,846.415555 2337.20277,845.075931 2336.03447,844.141295 C2334.86618,843.20666 2332.08568,842.20973 2327.69289,841.150476 L2323.90764,840.309309 C2318.67368,839.125437 2314.85731,837.271771 2312.45841,834.748255 C2310.05951,832.224739 2308.86008,828.844524 2308.86008,824.60751 C2308.86008,819.560478 2310.68259,815.635068 2314.32767,812.831161 C2317.97275,810.027255 2323.09759,808.625322 2329.70235,808.625322 C2332.66203,808.625322 2335.61387,808.866766 2338.55798,809.349661 C2341.50208,809.832556 2344.36046,810.556888 2347.13321,811.522678 Z M2380.68344,795.026443 L2380.68344,809.887074 L2398.58162,809.887074 L2398.58162,820.401671 L2380.68344,820.401671 L2380.68344,845.169389 C2380.68344,847.505978 2381.252,849.180508 2382.38914,850.19303 C2383.52628,851.205552 2385.41889,851.711805 2388.06702,851.711805 L2398.58162,851.711805 L2398.58162,862.226402 L2387.08566,862.226402 C2379.23472,862.226402 2373.92295,860.972452 2371.1502,858.464513 C2368.37745,855.956574 2366.99109,851.306832 2366.99109,844.515147 L2366.99109,820.401671 L2353.62587,820.401671 L2353.62587,809.887074 L2366.99109,809.887074 L2366.99109,795.026443 L2380.68344,795.026443 Z" id="Bifröst-Copy" fill="#647C8A" opacity="0.22486413" transform="translate(2233.581617, 824.000000) rotate(-90.000000) translate(-2233.581617, -824.000000) "></path>
        <rect id="Rectangle-1-Copy-298" stroke="#9013FE" fill-opacity="0.0138700181" fill="#9013FE" transform="translate(2416.500000, 130.000000) rotate(90.000000) translate(-2416.500000, -130.000000) " x="2400" y="70" width="33" height="120"></rect>
        <rect id="Rectangle-1-Copy-299" stroke="#DD8A02" fill-opacity="0.049535779" fill="#F5A623" transform="translate(2416.500000, 68.000000) rotate(90.000000) translate(-2416.500000, -68.000000) " x="2400" y="8" width="33" height="120"></rect>
        <rect id="Rectangle-1-Copy-300" stroke="#4A90E2" fill-opacity="0.0484601449" fill="#4A90E2" transform="translate(2416.500000, 198.000000) rotate(90.000000) translate(-2416.500000, -198.000000) " x="2400" y="138" width="33" height="120"></rect>
        <rect id="Rectangle-1-Copy-301" stroke="#417505" fill-opacity="0.0358072917" fill="#7ED321" transform="translate(2416.500000, 266.000000) rotate(90.000000) translate(-2416.500000, -266.000000) " x="2400" y="206" width="33" height="120"></rect>
        <rect id="Rectangle-1-Copy-302" stroke="#D0021B" fill-opacity="0.0234375" fill="#D0021B" transform="translate(2416.500000, 332.000000) rotate(90.000000) translate(-2416.500000, -332.000000) " x="2400" y="272" width="33" height="120"></rect>
        <text id="Backend-Service" font-family="Menlo-Regular, Menlo" font-size="20" font-weight="normal" fill="#FF9800">
            <tspan x="2500" y="74">Backend Service</tspan>
        </text>
        <text id="View-Component-Copy-10" font-family="Menlo-Regular, Menlo" font-size="20" font-weight="normal" fill="#9013FE">
            <tspan x="2500" y="136">View Component</tspan>
        </text>
        <text id="Business-Logic-/-UI" font-family="Menlo-Regular, Menlo" font-size="20" font-weight="normal" fill="#4A90E2">
            <tspan x="2500" y="205">Business Logic / UI Service</tspan>
        </text>
        <text id="Store-/-Cache-Copy" font-family="Menlo-Regular, Menlo" font-size="20" font-weight="normal" fill="#4CAF50">
            <tspan x="2500" y="272">Store / Cache</tspan>
        </text>
        <text id="Event-Bus" font-family="Menlo-Regular, Menlo" font-size="20" font-weight="normal" fill="#D0021B">
            <tspan x="2500" y="336">Event Bus</tspan>
        </text>
        <rect id="Rectangle-1-Copy-287" stroke="#9013FE" fill-opacity="0.0138700181" fill="#9013FE" transform="translate(500.500000, 263.000000) rotate(90.000000) translate(-500.500000, -263.000000) " x="326" y="-47" width="349" height="620"></rect>
        <rect id="Rectangle-1-Copy-287" stroke="#FF05D1" fill-opacity="0.0832201087" fill="#FF0085" transform="translate(1641.500000, 526.000000) rotate(90.000000) translate(-1641.500000, -526.000000) " x="1564" y="216" width="155" height="620"></rect>
        <text id="Stateful-View-Abstra" font-family="Menlo-Bold, Menlo" font-size="20" font-weight="bold" fill="#D700B7">
            <tspan x="1482.4873" y="487">Stateful View Abstraction</tspan>
        </text>
        <path d="M1331.5,511.5 L1950.51292,511.5" id="Line-66" stroke="#BD10E0" stroke-linecap="square"></path>
        <text id="getObjectData(id);" font-family="Menlo-Bold, Menlo" font-size="20" font-weight="bold" fill="#D700B7">
            <tspan x="1361" y="547">getObjectData(</tspan>
            <tspan x="1529.57422" y="547" font-family="Menlo-Regular, Menlo" font-weight="normal">id</tspan>
            <tspan x="1553.65625" y="547">);</tspan>
        </text>
        <text id="mutateObjectData(id," font-family="Menlo-Bold, Menlo" font-size="20" font-weight="bold" fill="#D700B7">
            <tspan x="1364" y="582">mutateObjectData(</tspan>
            <tspan x="1568.69727" y="582" font-family="Menlo-Regular, Menlo" font-weight="normal">id, object</tspan>
            <tspan x="1689.10742" y="582">);</tspan>
        </text>
        <rect id="Rectangle-1-Copy-289" stroke="#9013FE" fill-opacity="0.0784646739" fill="#9013FE" transform="translate(506.000000, 292.500000) rotate(90.000000) translate(-506.000000, -292.500000) " x="447" y="54" width="118" height="477"></rect>
        <text id="UI-Component-Copy-7" font-family="Menlo-Regular, Menlo" font-size="20" font-weight="normal" fill="#9013FE">
            <tspan x="425.253906" y="303">UI Component</tspan>
        </text>
        <path d="M472,207.380597 L472,257.619403" id="Line-Copy-35" stroke="#9013FE" fill="#9013FE" stroke-linecap="square"></path>
        <path id="Line-Copy-35-decoration-1" d="M472,257.619403 L475,246.819403 L469,246.819403 L472,257.619403 Z" stroke="#9013FE" fill="#9013FE" stroke-linecap="square"></path>
        <path d="M513,209.380597 L513,259.619403" id="Line-Copy-36" stroke="#9013FE" fill="#9013FE" stroke-linecap="square" transform="translate(513.000000, 234.500000) scale(1, -1) translate(-513.000000, -234.500000) "></path>
        <path id="Line-Copy-36-decoration-1" d="M513,259.619403 L516,248.819403 L510,248.819403 L513,259.619403 Z" stroke="#9013FE" fill="#9013FE" stroke-linecap="square"></path>
        <text id="Stateful-View-Compon" font-family="Menlo-Bold, Menlo" font-size="20" font-weight="bold" fill="#9013FE">
            <tspan x="344.487305" y="159">Stateful View Component A</tspan>
        </text>
        <rect id="Rectangle-1-Copy-287" stroke="#FF05D1" fill-opacity="0.0832201087" fill="#FF0085" transform="translate(501.500000, 526.000000) rotate(90.000000) translate(-501.500000, -526.000000) " x="424" y="216" width="155" height="620"></rect>
        <text id="Stateful-View-Abstra" font-family="Menlo-Bold, Menlo" font-size="20" font-weight="bold" fill="#D700B7">
            <tspan x="342.487305" y="487">Stateful View Abstraction</tspan>
        </text>
        <path d="M191.5,511.5 L810.512924,511.5" id="Line-66" stroke="#BD10E0" stroke-linecap="square"></path>
        <text id="callServiceA(id);" font-family="Menlo-Bold, Menlo" font-size="20" font-weight="bold" fill="#D700B7">
            <tspan x="221" y="547">callServiceA(</tspan>
            <tspan x="377.533203" y="547" font-family="Menlo-Regular, Menlo" font-weight="normal">id</tspan>
            <tspan x="401.615234" y="547">);</tspan>
        </text>
        <text id="callServiceB(id);" font-family="Menlo-Bold, Menlo" font-size="20" font-weight="bold" fill="#D700B7">
            <tspan x="224" y="582">callServiceB(</tspan>
            <tspan x="380.533203" y="582" font-family="Menlo-Regular, Menlo" font-weight="normal">id</tspan>
            <tspan x="404.615234" y="582">);</tspan>
        </text>
        <g id="object-service-copy-4" transform="translate(526.000000, 1072.000000)" fill="#4A90E2">
            <g id="Group-4" transform="translate(0.177340, 0.000000)">
                <path d="M240.85468,0.5 L0.5,0.5 L0.5,114.5 L240.85468,114.5 L240.85468,0.5 Z" id="Rectangle-1-Copy-120" stroke="#4A90E2" fill-opacity="0.0484601449"></path>
                <text id="Object-State-Service" font-family="Menlo-Regular, Menlo" font-size="20" font-weight="normal">
                    <tspan x="49.6011969" y="55">Object State </tspan>
                    <tspan x="79.703736" y="79">Service</tspan>
                </text>
            </g>
        </g>
        <path d="M1297.5,1221.06818 L1297.5,1594.93182" id="Line-2-Copy-40" stroke="#9B9B9B" stroke-width="2" stroke-linecap="square"></path>
        <path id="Line-2-Copy-40-decoration-1" d="M1297.5,1594.93182 L1300.5,1584.13182 L1294.5,1584.13182 L1297.5,1594.93182 Z" stroke="#9B9B9B" stroke-width="2" stroke-linecap="square"></path>
        <path d="M1384,1218.99157 L1384,1593.04346 L1384,1218.99157 Z" id="Line-2-Copy-41" stroke="#9B9B9B" stroke-width="2" stroke-linecap="square"></path>
        <path id="Line-2-Copy-41-decoration-1" d="M1384,1218.99157 L1381,1229.79157 L1387,1229.79157 L1384,1218.99157 Z" stroke="#9B9B9B" stroke-width="2" stroke-linecap="square"></path>
        <g id="object-service-copy-4" transform="translate(1223.000000, 1143.000000)" fill="#4A90E2">
            <g id="Group-4" transform="translate(0.177340, 0.000000)">
                <path d="M240.85468,0.5 L0.5,0.5 L0.5,76.5 L240.85468,76.5 L240.85468,0.5 Z" id="Rectangle-1-Copy-120" stroke="#4A90E2" fill-opacity="0.0484601449"></path>
                <text id="REST-Service" font-family="Menlo-Regular, Menlo" font-size="20" font-weight="normal">
                    <tspan x="56.6011969" y="42">REST Service</tspan>
                </text>
            </g>
        </g>
        <g id="Group-7-Copy-53" transform="translate(1493.000000, 1717.000000)" fill="#F5A623" fill-opacity="0.049535779" stroke="#DD8A02">
            <path d="M214.5,0.5 L0.5,0.5 L0.5,200.5 L214.5,200.5 L214.5,0.5 Z" id="Rectangle-1-Copy-128"></path>
        </g>
        <g id="object-service-copy-4" transform="translate(1793.000000, 1803.000000)" fill="#4A90E2">
            <g id="Group-4">
                <path d="M297.702683,0.5 L0.5,0.5 L0.5,114.5 L297.702683,114.5 L297.702683,0.5 Z" id="Rectangle-1-Copy-120" stroke="#4A90E2" fill-opacity="0.0484601449"></path>
                <text id="Service-B" font-family="Menlo-Regular, Menlo" font-size="20" font-weight="normal">
                    <tspan x="96.3622888" y="64">Service B</tspan>
                </text>
            </g>
        </g>
        <rect id="Rectangle-1-Copy-292" stroke="#D0021B" fill-opacity="0.0234375" fill="#D0021B" transform="translate(1942.000000, 1737.000000) rotate(90.000000) translate(-1942.000000, -1737.000000) " x="1919.5" y="1585.5" width="45" height="303"></rect>
        <text id="Event-Bus-Copy-19" font-family="Menlo-Regular, Menlo" font-size="20" font-weight="normal" fill="#D0021B">
            <tspan x="1815" y="1741">Event Bus</tspan>
        </text>
        <path d="M1875.5,1762.11364 L1875.5,1801.88636" id="Line-2-Copy-40" stroke="#D0021B" stroke-width="2" stroke-linecap="square"></path>
        <path id="Line-2-Copy-40-decoration-1" d="M1875.5,1801.88636 L1878.5,1791.08636 L1872.5,1791.08636 L1875.5,1801.88636 Z" stroke="#D0021B" stroke-width="2" stroke-linecap="square"></path>
        <path d="M2011.37148,1762 L2011.37148,1801.71661 L2011.37148,1762 Z" id="Line-2-Copy-41" stroke="#D0021B" stroke-width="2" stroke-linecap="square"></path>
        <path id="Line-2-Copy-41-decoration-1" d="M2011.37148,1762 L2008.37148,1772.8 L2014.37148,1772.8 L2011.37148,1762 Z" stroke="#D0021B" stroke-width="2" stroke-linecap="square"></path>
        <path d="M1746,1603.46187 L1746,1639.04569 L1595,1639.04569 L1595,1715.2963" id="Path-159" stroke="#D0021B" stroke-width="5" stroke-linecap="square" stroke-dasharray="5,8"></path>
        <g id="Group-7-Copy-53" transform="translate(614.000000, 1756.000000)" fill="#F5A623" fill-opacity="0.049535779" stroke="#DD8A02">
            <path d="M371.5,0.5 L0.5,0.5 L0.5,86.5 L371.5,86.5 L371.5,0.5 Z" id="Rectangle-1-Copy-128"></path>
        </g>
        <text id="vpxd-(vCenter)" font-family="Menlo-Bold, Menlo" font-size="18" font-weight="bold" fill="#FB8401">
            <tspan x="717.141602" y="1799">vpxd (vCenter)</tspan>
        </text>
        <path d="M1297.35105,1608 L1297.35105,1784.24597 L989,1784.24597" id="Path-160" stroke="#9B9B9B" stroke-width="2" stroke-linecap="square" stroke-dasharray="10"></path>
        <path id="Path-160-decoration-1" d="M989,1784.24597 L999.8,1787.24597 L999.8,1781.24597 L989,1784.24597 Z" stroke="#9B9B9B" stroke-width="2" stroke-linecap="square" stroke-dasharray="10"></path>
        <path d="M1384,1606.75393 L1384,1823.24597 L989,1823.24597" id="Path-160-Copy" stroke="#9B9B9B" stroke-width="2" stroke-linecap="square" stroke-dasharray="10"></path>
        <path id="Path-160-Copy-decoration-1" d="M989,1823.24597 L999.8,1826.24597 L999.8,1820.24597 L989,1823.24597 Z" stroke="#9B9B9B" stroke-width="2" stroke-linecap="square" stroke-dasharray="10"></path>
        <text id="API-GW" font-family="Menlo-Bold, Menlo" font-size="18" font-weight="bold" fill="#FB8401">
            <tspan x="1488.48926" y="1644">API-GW</tspan>
        </text>
        <text id="Notifications-Servic" font-family="Menlo-Bold, Menlo" font-size="18" font-weight="bold" fill="#FB8401">
            <tspan x="1529.56006" y="1810">Notifications</tspan>
            <tspan x="1562.0708" y="1831">Service</tspan>
        </text>
        <g id="Group-71-Copy-12" transform="translate(1179.500000, 1643.000000) rotate(-270.000000) translate(-1179.500000, -1643.000000) translate(1159.500000, 1441.500000)" stroke="#9B9B9B" stroke-dasharray="10" stroke-linecap="square" stroke-width="2">
            <path d="M1.5,87 L1.5,401.863797" id="Line-2-Copy-4"></path>
            <path id="Line-2-Copy-4-decoration-1" d="M1.5,401.863797 L4.5,391.063797 L-1.5,391.063797 L1.5,401.863797 Z"></path>
            <path d="M38.5,1.13620326 L38.5,400.141998" id="Line-2-Copy-5" transform="translate(38.500000, 200.715953) scale(1, -1) translate(-38.500000, -200.715953) "></path>
            <path id="Line-2-Copy-5-decoration-1" d="M38.5,400.141998 L41.5,389.341998 L35.5,389.341998 L38.5,400.141998 Z"></path>
        </g>
        <g id="Group-7-Copy-53" transform="translate(610.000000, 1597.000000)" fill="#F5A623" fill-opacity="0.049535779" stroke="#DD8A02">
            <path d="M371.5,0.5 L0.5,0.5 L0.5,86.5 L371.5,86.5 L371.5,0.5 Z" id="Rectangle-1-Copy-128"></path>
        </g>
        <text id="API-GW" font-family="Menlo-Bold, Menlo" font-size="18" font-weight="bold" fill="#FB8401">
            <tspan x="756.489258" y="1640">API-GW</tspan>
        </text>
        <text id="vpxd-java-services" font-family="Menlo-Bold, Menlo" font-size="18" font-weight="bold" fill="#FB8401">
            <tspan x="1486.46777" y="1992">vpxd-java-services</tspan>
        </text>
        <text id="Front-end-(Browser)" font-family="Menlo-Bold, Menlo" font-size="27" font-weight="bold" fill="#9B9B9B">
            <tspan x="2422.57397" y="1331">Front-end (Browser)</tspan>
        </text>
        <path d="M60.5,1464.5 L2772.5,1464.5" id="Line-68" stroke="#979797" stroke-linecap="square"></path>
        <text id="Backend-(Multiple-Te" font-family="Menlo-Bold, Menlo" font-size="27" font-weight="bold" fill="#9B9B9B">
            <tspan x="2265.04175" y="1626">Backend (Multiple Technologies)</tspan>
        </text>
        <rect id="Rectangle-1-Copy-292" stroke="#D0021B" fill-opacity="0.0234375" fill="#D0021B" transform="translate(1065.500000, 860.000000) rotate(90.000000) translate(-1065.500000, -860.000000) " x="1027" y="-27" width="77" height="1774"></rect>
        <path d="" id="Path-161" stroke="#979797"></path>
        <g id="if_weather_29_2682822-copy" transform="translate(2054.000000, 1720.000000)" fill-rule="nonzero">
            <path d="M32,0 C14.334878,0.0192745639 0.0192745639,14.334878 0,32 L6.09224044,32 C6.12301693,17.7197589 17.6917807,6.15099507 31.9720219,6.12021858" id="Shape" fill="#F7563C"></path>
            <path d="M32,6 C17.6534233,6.03091945 6.03091945,17.6534233 6,32 L12.1205405,32 C12.143732,21.0304983 21.0304983,12.143732 32,12.1205405" id="Shape" fill="#EFCC00"></path>
            <path d="M32,12 C20.9575322,12.0077874 12.0077874,20.9575322 12,32 L18.1489587,32 C18.1567472,24.3546522 24.3546493,18.1599091 32,18.1560184" id="Shape" fill="#42BC59"></path>
            <path d="M32,18 C24.2712759,18.0078704 18.0078704,24.2712759 18,32 L24.2325344,32 C24.2364704,27.7117786 27.7117786,24.2364704 32,24.2325344" id="Shape" fill="#0D98FF"></path>
        </g>
    </g>
</svg>