<?xml version="1.0" encoding="UTF-8"?>
<svg width="56px" height="56px" viewBox="0 0 56 56" version="1.1" xmlns="http://www.w3.org/2000/svg" xmlns:xlink="http://www.w3.org/1999/xlink">
    <!-- Generator: Sketch 53 (72520) - https://sketchapp.com -->
    <title>iconfinder_41_fabric-textile-material_2875396</title>
    <desc>Created with Sketch.</desc>
    <g id="Page-1" stroke="none" stroke-width="1" fill="none" fill-rule="evenodd" stroke-linecap="round" stroke-linejoin="round">
        <g id="iconfinder_41_fabric-textile-material_2875396" transform="translate(1.000000, 1.000000)" stroke="#FFFFFF" stroke-width="2">
            <polyline id="Path" points="44 29 44 22 44 18 44 11"></polyline>
            <polyline id="Path" points="44 35 44 42 44 46 44 54"></polyline>
            <path d="M44,5 L44,0" id="Path"></path>
            <polyline id="Path" points="33 54 33 48 33 48 33 47"></polyline>
            <polyline id="Path" points="33 23 33 30 33 34 33 41"></polyline>
            <path d="M33,17 L33,0" id="Path"></path>
            <polyline id="Path" points="22 29 22 22 22 18 22 11"></polyline>
            <polyline id="Path" points="22 35 22 42 22 46 22 54"></polyline>
            <path d="M22,5 L22,0" id="Path"></path>
            <polyline id="Path" points="11 47 11 48 11 48 11 54"></polyline>
            <polyline id="Path" points="11 41 11 34 11 30 11 23"></polyline>
            <path d="M11,17 L11,0" id="Path"></path>
            <path d="M47,46.48 C49.78,45.4 49.74,44 54,44" id="Path"></path>
            <path d="M41,46.48 C39.03,45.71 37.97,45.29 36,44.52 C35.19,44.2 34.23,44 33,44 L32.99,44 C31.76,44 30.8,44.2 30,44.51 C28.03,45.28 26.98,45.71 25,46.48" id="Path"></path>
            <path d="M0,47 C4.26,47 5.22,45.6 8,44.52 C8.8,44.2 9.76,44 11,44 C12.24,44 13.2,44.2 14,44.52 C15.97,45.29 17.03,45.71 19,46.48" id="Path"></path>
            <path d="M0,32 C4.26,32 5.22,33.4 8,34.48" id="Path"></path>
            <path d="M30,34.48 C28.03,33.71 26.97,33.28 25,32.51 C24.19,32.2 23.24,32 22.01,32 L22,32 C20.77,32 19.81,32.2 19,32.52 C17.03,33.29 15.98,33.72 14,34.49" id="Path"></path>
            <path d="M36,34.48 C37.97,33.71 39.03,33.29 41,32.52 C41.8,32.2 42.76,32 44,32 C45.24,32 46.2,32.2 47,32.52 C49.78,33.6 49.74,35 54,35" id="Path"></path>
            <path d="M47,22.48 C49.78,21.4 49.74,20 54,20" id="Path"></path>
            <path d="M41,22.48 C39.03,21.71 37.97,21.29 36,20.52 C35.19,20.2 34.23,20 33,20 L32.99,20 C31.76,20 30.8,20.2 30,20.51 C28.03,21.28 26.98,21.71 25,22.48" id="Path"></path>
            <path d="M0,23 C4.26,23 5.22,21.6 8,20.52 C8.8,20.2 9.76,20 11,20 C12.24,20 13.2,20.2 14,20.52 C15.97,21.29 17.03,21.71 19,22.48" id="Path"></path>
            <path d="M0,8 C4.26,8 5.22,9.4 8,10.48" id="Path"></path>
            <path d="M30,10.48 C28.03,9.71 26.97,9.28 25,8.51 C24.19,8.2 23.24,8 22.01,8 L22,8 C20.77,8 19.81,8.2 19,8.52 C17.03,9.29 15.98,9.72 14,10.49" id="Path"></path>
            <path d="M36,10.48 C37.97,9.71 39.03,9.29 41,8.52 C41.8,8.2 42.76,8 44,8 C45.24,8 46.2,8.2 47,8.52 C49.78,9.6 49.74,11 54,11" id="Path"></path>
        </g>
    </g>
</svg>